<?xml version="1.0" encoding="UTF-8"?>
<svg id="a" data-name="Layer 1" xmlns="http://www.w3.org/2000/svg" viewBox="0 0 599.92 763.78">
  <defs>
    <style>
      .o, .p, .q {
        stroke-width: 0px;
      }

      .o, .q {
        fill: #000;
      }

      .p {
        fill: #fff;
      }

      .p, .q {
        fill-rule: evenodd;
      }
    </style>
  </defs>
  <g id="b" data-name="rabbitude transparent">
    <g id="c" data-name="master">
      <path id="d" data-name="ear-back-outline" class="q" d="M279.96,87.78l96.66,276.18h0c3.28,9.38,2.45,19.21-1.54,27.51s-11.16,15.08-20.54,18.36c-8.13,2.85-17.01,2.68-25.04-.46l-148.47-58.22c-13.83-5.42-24.61-16.61-29.52-30.63L78.41,111.64c-2.55-7.3-1.91-14.94,1.2-21.4,3.11-6.46,8.68-11.73,15.98-14.28,2.97-1.04,6.1-1.57,9.25-1.57h156.25c8.5,0,16.07,5.37,18.88,13.39Z"/>
      <path id="e" data-name="ear-back-fill" class="p" d="M104.84,90.39h159.09l97.6,278.86c3.65,10.43-1.84,21.84-12.27,25.48-4.52,1.58-9.45,1.49-13.91-.26l-148.47-58.22c-9.49-3.72-16.89-11.4-20.26-21.02L93.51,106.35c-2.19-6.26,1.11-13.1,7.36-15.29,1.27-.45,2.61-.67,3.96-.67Z"/>
      <path id="f" data-name="ear-back-fold-outline" class="q" d="M279.9,96.34l-84.86,99c-12.54,14.63-30.84,23.05-50.11,23.05H36c-9.94,0-18.94-4.03-25.46-10.54-6.51-6.51-10.54-15.51-10.54-25.46,0-8.72,3.17-17.14,8.91-23.71l54.04-61.76c12.53-14.32,30.64-22.54,49.67-22.54h146.31l20.97,21.95Z"/>
      <path id="g" data-name="ear-back-fold-fill" class="p" d="M112.61,90.39h151.31l-81.03,94.54c-9.5,11.08-23.37,17.46-37.96,17.46H36c-11.05,0-20-8.95-20-20,0-4.84,1.76-9.52,4.95-13.17l54.04-61.76c9.49-10.85,23.21-17.07,37.63-17.07Z"/>
      <path id="h" data-name="skull-outline" class="q" d="M245.64,333.64c51.8-25.9,112.77-25.9,164.57,0l157.65,78.83c9.82,4.91,17.84,12.39,23.4,21.38,5.56,8.99,8.66,19.51,8.66,30.49v140.09c0,10.98-3.1,21.5-8.66,30.49s-13.57,16.47-23.4,21.38l-157.65,78.83c-51.8,25.9-112.77,25.9-164.57,0l-13.71-6.86v35.5l-112-56v-35.5l-31.94-15.97c-9.82-4.91-17.84-12.39-23.4-21.38-5.56-8.99-8.66-19.51-8.66-30.49v-140.09c0-10.98,3.1-21.5,8.66-30.49,5.56-9,13.57-16.47,23.4-21.38l157.65-78.83Z"/>
      <path id="i" data-name="skull-fill" class="p" d="M215.92,737.89l-32-16v-87.5l32,16v-16l-32-16v-32l-16-8v32l-32-16v16l32,16v87.5l-32-16v-63.5l-16-8v28l-24.78-12.39c-14.23-7.11-23.22-21.66-23.22-37.57v-140.09c0-15.91,8.99-30.45,23.22-37.57l157.65-78.83c47.3-23.65,102.97-23.65,150.26,0l157.65,78.83c14.23,7.11,23.22,21.66,23.22,37.57v140.09c0,15.91-8.99,30.45-23.22,37.57l-157.65,78.83c-47.3,23.65-102.97,23.65-150.26,0l-20.87-10.44v-28l-16-8v63.5Z"/>
      <path id="j" data-name="ear-front-outline" class="q" d="M411.92,0c8.17,0,16.11,2.78,22.49,7.89l112.49,90c13.28,10.63,21.02,26.72,21.02,43.73v307.16c0,9.94-4.03,18.94-10.54,25.46-6.51,6.51-15.51,10.54-25.46,10.54-8.17,0-16.11-2.78-22.49-7.89l-112.49-90c-13.28-10.63-21.02-26.72-21.02-43.73v-125.39l38.82-31.54-38.82-32.35V36c0-9.94,4.03-18.94,10.54-25.46,6.51-6.51,15.51-10.54,25.46-10.54Z"/>
      <path id="k" data-name="ear-front-fill" class="p" d="M424.42,20.38l112.49,90c9.49,7.59,15.01,19.08,15.01,31.23v307.16c0,11.05-8.95,20-20,20-4.54,0-8.95-1.55-12.49-4.38l-112.49-90c-9.49-7.59-15.01-19.08-15.01-31.23v-117.78l48-39-48-40V36c0-11.05,8.95-20,20-20,4.54,0,8.95,1.55,12.49,4.38Z"/>
      <path id="l" data-name="eye-left" class="q" d="M71.92,468.41l32.23,49.42,30.35-15.17,7.16,14.31-28.71,14.35,25.04,38.4-13.4,8.74-26.05-39.94-26.62,13.31v-17.89l17.83-8.91-17.83-27.33v-29.29Z"/>
      <path id="m" data-name="eye-right" class="o" d="M312.92,570.39c25.38,0,48.09,10.46,67.87,30.98l13.84-10.16,9.47,12.9-25.51,19.18c-19.23-24.82-40.98-36.9-65.68-36.9s-46.44,12.08-65.68,36.9l-12.65-9.8c22.1-28.52,48.35-43.1,78.32-43.1Z"/>
      <path id="n" data-name="eye-scar" class="o" d="M369.4,563.64l14.27,7.23-27.23,53.77-14.27-7.23,27.23-53.77ZM343.4,549.64l14.27,7.23-27.23,53.77-14.27-7.23,27.23-53.77Z"/>
    </g>
  </g>
</svg>